<!-- Generated by IcoMoon.io -->
<svg version="1.1" xmlns="http://www.w3.org/2000/svg" width="576" height="448" viewBox="0 0 576 448">
<title></title>
<g id="icomoon-ignore">
</g>
<path fill="#212121" d="M279.75 85.25c-20.75-13.75-45.25-21.25-70.25-21.25-70.25 0-127.25 57-127.25 127 0 70.25 57 127.25 127.25 127.25 25 0 49.5-7.5 70.25-21.25-67-54.5-66.5-157.25 0-211.75zM288 91.25c-64.5 50.75-64.75 149.25 0 199.75 64.75-50.5 64.5-149 0-199.75zM296.25 85.25c66.25 54.5 67.25 157.5 0 211.75 20.75 13.75 45.5 21.25 70.25 21.25 70.25 0 127.25-57 127.25-127.25 0-70-57-127-127.25-127-25 0-49.5 7.5-70.25 21.25zM481.5 265.75h1.75v-0.75h-4.25v0.75h1.75v4.25h0.75v-4.25zM488.75 270h1v-5h-1.25l-1.5 3.25-1.5-3.25h-1.25v5h0.75v-3.75l1.5 3.25h1l1.25-3.25v3.75zM486.75 380v0.5h-1.25v-0.75h1.25v0.25zM486.75 382.25h0.75l-1-1.25c0.5 0 0.5-0.25 0.75-0.25 0.25-0.25 0.25-0.5 0.25-0.75s0-0.5-0.25-0.75c-0.25 0-0.5-0.25-1-0.25h-1.5v3.25h0.75v-1.25h0.25zM171.25 365.25c0-6 3.75-10.75 10.25-10.75 6 0 10 4.75 10 10.75 0 6.25-4 10.75-10 10.75-6.5 0-10.25-4.75-10.25-10.75zM289.5 354.25c4.75 0 8 2.75 8.75 8h-17.5c0.75-4.75 3.75-8 8.75-8zM378.5 365.25c0-6 3.75-10.75 10-10.75s10.25 4.75 10.25 10.75c0 6.25-4 10.75-10.25 10.75s-10-4.75-10-10.75zM446.5 365.25c0-6 4-10.75 10.25-10.75 6 0 10.25 4.75 10.25 10.75 0 6.25-4.25 10.75-10.25 10.75-6.25 0-10.25-4.75-10.25-10.75zM486 383.25c-0.25 0-0.5 0-1-0.25-0.25 0-0.5-0.25-0.75-0.5s-0.5-0.5-0.5-0.75-0.25-0.75-0.25-1 0-0.75 0.25-1c0-0.5 0.25-0.75 0.5-1s0.5-0.25 0.75-0.5 0.75-0.25 1-0.25 0.75 0 1 0.25 0.75 0.25 1 0.5 0.25 0.5 0.5 1c0 0.25 0.25 0.5 0.25 1 0 0.25-0.25 0.5-0.25 1-0.25 0.25-0.25 0.5-0.5 0.75s-0.5 0.5-1 0.5c-0.25 0.25-0.5 0.25-1 0.25zM149.75 382.25h7.5v-21.25c0-8-5.25-13.25-13.5-13.5-4.25 0-8.75 1.25-11.75 6-2.25-3.75-6-6-11.25-6-3.5 0-7 1.25-9.75 5v-4h-7.5v33.75h7.5v-18.75c0-6 3.25-9 8.25-9s7.5 3.25 7.5 9v18.75h7.25v-18.75c0-6 3.5-9 8.25-9 5 0 7.5 3.25 7.5 9v18.75zM191.25 382.25h7.25v-33.75h-7.25v4c-2.5-3-6-5-10.75-5-9.5 0-16.75 7.5-16.75 17.75s7.25 17.75 16.75 17.75c4.75 0 8.25-1.75 10.75-5v4.25zM235.75 372c0-6-4.5-9-11.75-10l-3.5-0.5c-3.25-0.5-5.75-1.25-5.75-3.5s2.25-3.75 6.25-3.75c4.5 0 8.5 1.5 10.75 2.75l3-6c-3.5-2.25-8.25-3.5-13.75-3.5-8.5 0-14 4.25-14 11 0 5.5 4 8.75 11.75 9.75l3.25 0.5c4.25 0.75 6 1.75 6 3.5 0 2.75-2.75 4.25-7.75 4.25s-8.75-1.75-11.25-3.5l-3.25 5.75c4 2.75 9 4.25 14.5 4.25 9.75 0 15.5-4.5 15.5-11zM268.25 380.5l-2-6.25c-2.25 1.25-4.5 1.75-6.5 1.75-3.75 0-4.75-2.25-4.75-5.5v-15.25h12v-6.75h-12v-10.25h-7.5v10.25h-7v6.75h7v15.25c0 7.75 3 12.5 11.75 12.5 3 0 6.75-1 9-2.5zM289.75 347.5c-9.75 0-16.75 7.25-16.75 17.75 0 10.75 7.25 17.75 17.25 17.75 5 0 9.75-1.25 13.75-4.75l-3.5-5.5c-2.75 2.25-6.5 3.75-9.75 3.75-4.75 0-9-2.25-10.25-8.25h25.25v-3c0-10.5-6.5-17.75-16-17.75zM329.5 347.5c-4.25 0-7 2-8.75 5v-4h-7.5v33.75h7.5v-19c0-5.5 2.25-8.75 7.25-8.75 1.5 0 3 0.25 4.5 1l2.25-7c-1.75-0.75-3.75-1-5.25-1zM337 365.25c0 10.25 7 17.75 18 17.75 5 0 8.5-1 12-4l-3.5-6c-2.75 2-5.5 3.25-8.75 3-6 0-10.25-4.25-10.25-10.75s4.25-10.75 10.25-10.75c3.25 0 6 1 8.75 3l3.5-6c-3.5-2.75-7-4-12-4-11 0-18 7.5-18 17.75zM398.25 382.25h7.5v-33.75h-7.5v4c-2.25-3-5.75-5-10.5-5-9.5 0-17 7.5-17 17.75s7.5 17.75 17 17.75c4.75 0 8.25-1.75 10.5-5v4.25zM431.5 347.5c-4.25 0-7 2-8.75 5v-4h-7.25v33.75h7.25v-19c0-5.5 2.5-8.75 7.25-8.75 1.5 0 3 0.25 4.5 1l2.25-7c-1.5-0.75-3.75-1-5.25-1zM466.5 382.25h7.25v-47.5h-7.25v17.75c-2.25-3-5.75-5-10.75-5-9.25 0-16.75 7.5-16.75 17.75s7.5 17.75 16.75 17.75c5 0 8.5-1.75 10.75-5v4.25zM486 377.25c-0.25 0-0.75 0.25-1.25 0.25-0.5 0.25-0.75 0.5-1 0.75-0.5 0.25-0.75 0.75-0.75 1-0.25 0.5-0.25 1-0.25 1.5 0 0.25 0 0.75 0.25 1.25 0 0.25 0.25 0.75 0.75 1 0.25 0.25 0.5 0.5 1 0.75s1 0.25 1.25 0.25c0.5 0 1 0 1.5-0.25 0.25-0.25 0.75-0.5 1-0.75s0.5-0.75 0.75-1c0.25-0.5 0.25-1 0.25-1.25 0-0.5 0-1-0.25-1.5-0.25-0.25-0.5-0.75-0.75-1s-0.75-0.5-1-0.75c-0.5 0-1-0.25-1.5-0.25zM576 64v320c0 17.5-14.5 32-32 32h-512c-17.5 0-32-14.5-32-32v-320c0-17.5 14.5-32 32-32h512c17.5 0 32 14.5 32 32z"></path>
</svg>
