<!-- Generated by IcoMoon.io -->
<svg version="1.1" xmlns="http://www.w3.org/2000/svg" width="576" height="448" viewBox="0 0 576 448">
<title></title>
<g id="icomoon-ignore">
</g>
<path fill="#212121" d="M186.25 226.5c0 12.25-9.75 21.5-22 21.5-9.25 0-16-5.25-16-15 0-12.25 9.5-22 21.75-22 9.25 0 16.25 5.75 16.25 15.5zM382.5 189.25c0 15-9 18-22 18l-8 0.25 4.25-26.75c0.25-1.75 1.5-2.75 3.25-2.75h4.5c8.5 0 18 0.5 18 11.25zM470.25 226.5c0 12.25-9.75 21.5-21.75 21.5-9.25 0-16.25-5.25-16.25-15 0-12.25 9.5-22 21.75-22 9.25 0 16.25 5.75 16.25 15.5zM128.25 183.75c0-21-16.25-28-34.75-28h-40c-2.5 0-5 2-5.25 4.75l-16.25 102c-0.25 2 1.25 4 3.25 4h19c2.75 0 5.25-2 5.5-4.75l4.5-27.5c1-7.25 13.25-4.75 18-4.75 28.5 0 46-17 46-45.75zM205.5 261.75l10.25-65.25c0.25-2-1.25-4-3.25-4h-19c-3.75 0-4 5.5-4.25 8.25-5.75-8.5-14.25-10-23.75-10-24.5 0-43.25 21.5-43.25 45.25 0 19.5 12.25 32.25 31.75 32.25 9 0 20.25-4 26.5-11-0.5 1.5-1 3.75-1 5.25 0 2.25 1 4 3.25 4h17.25c2.75 0 5-2 5.5-4.75zM317.25 196c0-1.75-1.5-3.5-3.25-3.5h-19.25c-1.75 0-3.5 1-4.5 2.5l-26.5 39-11-37.5c-0.75-2.25-3-4-5.5-4h-18.75c-1.75 0-3.25 1.75-3.25 3.5 0 1.25 19.5 57.75 21.25 63-2.75 3.75-20.5 27-20.5 30 0 1.75 1.5 3.25 3.25 3.25h19.25c1.75 0 3.5-1 4.5-2.5l63.75-92c0.5-0.5 0.5-1 0.5-1.75zM412.25 183.75c0-21-16.25-28-34.75-28h-39.75c-2.75 0-5.25 2-5.5 4.75l-16.25 102c-0.25 2 1.25 4 3.25 4h20.5c2 0 3.5-1.5 4-3.25l4.5-29c1-7.25 13.25-4.75 18-4.75 28.5 0 46-17 46-45.75zM489.5 261.75l10.25-65.25c0.25-2-1.25-4-3.25-4h-19c-3.75 0-4 5.5-4.25 8.25-5.5-8.5-14-10-23.75-10-24.5 0-43.25 21.5-43.25 45.25 0 19.5 12.25 32.25 31.75 32.25 9.25 0 20.5-4 26.5-11-0.25 1.5-1 3.75-1 5.25 0 2.25 1 4 3.25 4h17.25c2.75 0 5-2 5.5-4.75zM544 159.5v-0.25c0-2-1.5-3.5-3.25-3.5h-18.5c-1.5 0-3 1.25-3.25 2.75l-16.25 104-0.25 0.5c0 1.75 1.5 3.5 3.5 3.5h16.5c2.5 0 5-2 5.25-4.75zM98 193c-2 12.75-10.5 14.25-21.5 14.25l-8.25 0.25 4.25-26.75c0.25-1.75 1.75-2.75 3.25-2.75h4.75c11.25 0 19.75 1.5 17.5 15zM576 64v320c0 17.5-14.5 32-32 32h-512c-17.5 0-32-14.5-32-32v-320c0-17.5 14.5-32 32-32h512c17.5 0 32 14.5 32 32z"></path>
</svg>
