<!-- Generated by IcoMoon.io -->
<svg version="1.1" xmlns="http://www.w3.org/2000/svg" width="576" height="448" viewBox="0 0 576 448">
<title></title>
<g id="icomoon-ignore">
</g>
<path fill="#212121" d="M493.75 247.5h-34.5c0 0 3.5-9.25 16.5-44.75-0.25 0.25 3.5-9.25 5.5-15.25l3 13.75c7.75 38.25 9.5 46.25 9.5 46.25zM132.75 231.25l-14.5-73.75c-2-10.25-9.75-13.5-18.75-13.5h-67l-0.5 3.25c46 11.75 83.75 36.75 100.75 84zM177.5 144l-40.5 109.5-4.25-22.25c-8.75-23.25-30-44.75-54-54.5l33.75 127.5h43.75l65.25-160.25h-44zM212.25 304.5h41.5l26-160.5h-41.5zM404.25 148c-8.25-3.25-21.25-6.75-37.25-6.75-41 0-69.75 21.75-70 53-0.25 23 20.5 35.75 36.25 43.5 16.25 7.75 21.5 13 21.5 20 0 10.75-13 15.5-24.75 15.5-16.75 0-25.75-2-39-8.25l-5.5-2.75-5.75 36c9.75 4.5 27.5 8.5 46.25 8.5 43.5 0.25 71.75-21.5 72.25-54.75 0-18.25-11.25-32-35-43.5-14.5-7.25-23.25-12.5-23.25-20 0-6.75 7.5-13.75 23.75-13.75 13.5-0.25 23.5 2.5 31 6l3.75 2zM510.5 144h-32c-10 0-17.5 3-21.75 13.5l-61.5 147h43.5c7-19.75 8.75-24 8.75-24h53c0 0 1.25 5.5 5 24h38.5zM576 64v320c0 17.5-14.5 32-32 32h-512c-17.5 0-32-14.5-32-32v-320c0-17.5 14.5-32 32-32h512c17.5 0 32 14.5 32 32z"></path>
</svg>
